<svg id="Layer_1" data-name="Layer 1" xmlns="http://www.w3.org/2000/svg" width="96.387" height="71.63" viewBox="0 0 96.387 71.63">
  <path id="Path_3" data-name="Path 3" d="M52.51,90.64l-2.442-4.029a.449.449,0,0,0,.222-.417.46.46,0,0,0-.46-.46.477.477,0,0,0-.249.07L47.09,81.7h5.058a.46.46,0,0,0,.46.455.466.466,0,0,0,.46-.455H57.9l-2.372,3.953a.428.428,0,0,0-.206-.049.466.466,0,0,0-.466.46.455.455,0,0,0,.195.379" transform="translate(-21.591 -37.46)" fill="#002647" fill-rule="evenodd"/>
  <path id="Path_4" data-name="Path 4" d="M51.6,89.77l-.065.26,2.442,4.029.319-.195-2.437-4.029-.26-.065-.168.1.1.162" transform="translate(-23.581 -41.16)" fill="#998742"/>
  <path id="Path_5" data-name="Path 5" d="M51.881,89.33h0v.027l-.005.011v.027l-.005.005v.011l-.005.005v.011l-.005.011-.005.005v.011l-.005.005-.005.011-.005.005-.005.005-.005.011-.005.005-.005.005-.005.005-.005.011-.005.005-.005.005-.005.005-.011.005-.005.005-.005.005-.011.005-.005.005-.011.005.19.33.022-.011.016-.016.016-.011L52,89.85l.016-.011.016-.016.016-.011.016-.016.016-.016.011-.016.016-.016.011-.016.016-.016.011-.016.011-.016.011-.022.011-.016.011-.022.011-.016.005-.022.011-.022.005-.016.011-.022.005-.022.005-.022.005-.022v-.022l.005-.022.005-.022V89.33" transform="translate(-23.723 -40.958)" fill="#998742"/>
  <path id="Path_6" data-name="Path 6" d="M51.5,88.5h0l.011.005h.043l.011.005.011.005h.016l.011.005.011.005.011.005.016.011.011.005.011.005.011.011.011.005.005.011.011.011.005.011.011.011.005.011.011.011.005.011.005.011.005.011.005.016.005.011V88.7l.005.016v.011l.005.016v.027h.379V88.71l-.005-.038-.005-.027-.011-.032-.005-.032-.011-.032-.011-.027-.016-.027-.016-.032-.011-.027-.022-.027-.016-.022L52,88.358l-.016-.022-.022-.022-.022-.022-.027-.022-.022-.022-.027-.016-.027-.016-.027-.016-.027-.016-.032-.011-.027-.011-.032-.011-.027-.011-.032-.005-.032-.005-.032-.005-.032-.005H51.5" transform="translate(-23.613 -40.403)" fill="#998742"/>
  <path id="Path_7" data-name="Path 7" d="M50.73,88.483l.265.06H51l.005-.005h.005l.005-.005h.005l.005-.005h.005l.005-.005h.011l.005-.005h.005l.005-.005h.022l.005-.005h.038l.005-.005h.011V88.12H51.1l-.016.005h-.032l-.011.005h-.016l-.005.005H51l-.011.005h-.011l-.011.005h-.011l-.011.005-.011.005h-.011l-.011.005-.011.005-.011.005h-.011l-.011.005-.011.005-.011.005-.011.005-.011.005-.011.005-.011.011H50.8l-.011.011.265.06-.325.195.1.168L51,88.542" transform="translate(-23.26 -40.403)" fill="#998742"/>
  <path id="Path_8" data-name="Path 8" d="M46.156,80.68l-.162.287,2.485,4.1.325-.195-2.485-4.1-.162-.092H45.82l.173.287" transform="translate(-21.009 -36.992)" fill="#998742"/>
  <path id="Path_9" data-name="Path 9" d="M51.682,80.864l-.19-.184H46.44v.379h5.052l.19-.195V80.68h-.19" transform="translate(-21.293 -36.992)" fill="#998742"/>
  <path id="Path_10" data-name="Path 10" d="M56.075,81.291h-.016l-.011-.005h-.027L56,81.28h-.011l-.016-.005-.011-.005-.011-.005-.011-.005-.011-.011-.011-.005-.011-.005-.011-.011-.011-.005-.011-.011-.005-.011-.011-.005-.005-.011-.011-.011-.005-.011-.005-.011-.011-.011-.005-.016v-.011l-.005-.011-.005-.011-.005-.016v-.027l-.005-.011V81.02l-.379.011v.027l.005.038.005.027.005.032.011.033.005.032.011.027.011.032.016.027.016.027.011.027.022.027.016.022.016.027.022.022.022.022.022.022.027.022.022.016.027.022.027.016.027.011.027.016.027.011.032.016.027.005.032.011.032.005.032.005.032.005.032.005h.032" transform="translate(-25.41 -37.148)" fill="#998742"/>
  <path id="Path_11" data-name="Path 11" d="M57.09,80.68l-.19.184v.027l-.005.016v.011l-.005.016v.011l-.005.011-.005.011-.005.016-.005.011L56.857,81l-.005.011-.005.011-.011.011-.005.005-.011.011-.011.011-.011.005-.011.011-.005.005-.016.005-.011.011-.011.005-.011.005-.011.005-.016.005h-.011l-.011.005h-.027l-.016.005H56.63v.379h.032l.032-.005.032-.005.032-.005.027-.005.032-.011.027-.005.032-.016.027-.011.032-.016.022-.011.027-.016.027-.022.027-.016.022-.022.022-.022.022-.022.022-.022.016-.027.022-.022.016-.027.016-.027.016-.027.011-.027.011-.032.011-.027.011-.032L57.264,81l.005-.032.005-.027.005-.038v-.027l-.19.184V80.68h-.184l-.005.184" transform="translate(-25.965 -36.992)" fill="#998742"/>
  <path id="Path_12" data-name="Path 12" d="M62.478,80.967l-.162-.287H57.48v.379h4.836l.162-.092.173-.287h-.336" transform="translate(-26.355 -36.992)" fill="#998742"/>
  <path id="Path_13" data-name="Path 13" d="M61.786,85.047l.249-.07,2.383-3.931-.325-.195L61.71,84.781l.076.265.157.081.092-.152" transform="translate(-28.294 -37.07)" fill="#998742"/>
  <path id="Path_14" data-name="Path 14" d="M61.63,88.229h.038l.005.005h.016l.005.005h.011l.005.005h.016l.005.005h0l.005.005h.011l.173-.336-.011-.005-.005-.005L61.9,87.9H61.89l-.011-.005h-.005l-.011-.005-.011-.005-.011-.005h-.005l-.011-.005h-.016l-.011-.005-.005-.005h-.022l-.005-.005h-.022l-.011-.005h-.027l-.011-.005H61.63" transform="translate(-28.257 -40.279)" fill="#998742"/>
  <path id="Path_15" data-name="Path 15" d="M60.8,88.5h0v-.027l.005-.011v-.016l.005-.011v-.016l.005-.011.005-.011.005-.016.005-.011.005-.011.011-.011.005-.011.005-.011.011-.011.011-.005.011-.011.005-.011.011-.005.011-.005.011-.011.016-.005.011-.005.011-.005.011-.005.016-.005L61,88.234h.011l.016-.005h.043V87.85H61l-.032.005-.032.005-.032.011-.027.005-.032.011-.027.011-.032.016-.027.011-.027.016-.027.016-.027.022L60.658,88l-.027.022-.022.022-.022.022-.016.027-.022.022-.016.027-.022.027-.011.027-.016.027-.011.027-.016.032-.011.027-.005.032-.011.033-.005.032v.033l-.005.032V88.5" transform="translate(-27.703 -40.279)" fill="#998742"/>
  <path id="Path_16" data-name="Path 16" d="M60.967,89.527l-.054-.255h-.005l-.005-.011H60.9l-.005-.005-.011-.005v-.005l-.011-.011-.005-.005-.005-.005v-.005l-.005-.005-.005-.005-.005-.005-.005-.011v-.005l-.005-.005-.005-.011-.005-.005v-.005l-.005-.011v-.005l-.005-.011v-.016L60.8,89.11v-.016l-.005-.011V89.05H60.42v.06l.005.022v.022l.005.016.005.022v.016l.005.022.005.022.005.016.011.016.005.022.011.016.005.016.011.016.005.016.011.016.011.016.011.016.011.016.011.016.011.016.016.011.011.016.011.016.016.011.011.011.016.016.016.011.011.011.016.011-.049-.249.325.195.087-.152-.141-.1" transform="translate(-27.703 -40.83)" fill="#998742"/>
  <path id="Path_17" data-name="Path 17" d="M56.13,93.967h.319l2.55-4.2-.325-.195-2.545,4.2v.195l.157.265.162-.265" transform="translate(-25.736 -41.068)" fill="#998742"/>
  <path id="Path_18" data-name="Path 18" d="M51.844,89.94l-2.437-4.029a.468.468,0,1,0-.5-.791L46.44,81h5.052a.466.466,0,0,0,.926,0h4.836l-2.388,3.948a.466.466,0,0,0-.211-.049.46.46,0,0,0-.265.839" transform="translate(-21.293 -37.139)" fill="#fff" fill-rule="evenodd"/>
  <path id="Path_19" data-name="Path 19" d="M1.21,30.545c40.033-10.164,55.812-10.164,95.732,0-38.934-4.635-56.365-5.339-95.732,0" transform="translate(-0.555 -10.51)" fill="#002647" fill-rule="evenodd"/>
  <path id="Path_20" data-name="Path 20" d="M0,29.715c40.038-10.164,55.812-10.164,95.721,0C56.8,25.075,39.367,24.376,0,29.715" transform="translate(0 -10.129)" fill="#998742" fill-rule="evenodd"/>
  <path id="Path_21" data-name="Path 21" d="M7.588,42.684a6.449,6.449,0,0,0,.179,1.9.71.71,0,0,0,1.327.016A6.5,6.5,0,0,0,9.277,42.6a5.664,5.664,0,0,0-.184-1.814.655.655,0,0,0-.655-.444.671.671,0,0,0-.671.444,6.2,6.2,0,0,0-.179,1.874m.85,3.4a2.821,2.821,0,0,1-.845-.119,1.662,1.662,0,0,1-.634-.282,2.009,2.009,0,0,1-.579-1.018,8.664,8.664,0,0,1-.173-1.993,9.4,9.4,0,0,1,.1-1.625,2.5,2.5,0,0,1,.352-.931,1.549,1.549,0,0,1,.7-.542,2.708,2.708,0,0,1,1.083-.195,2.735,2.735,0,0,1,.861.125,1.744,1.744,0,0,1,.639.336,1.89,1.89,0,0,1,.541.953,7.1,7.1,0,0,1,.168,1.792,10.446,10.446,0,0,1-.108,1.814,2.567,2.567,0,0,1-.357.958,1.624,1.624,0,0,1-.7.541,2.577,2.577,0,0,1-1.051.206Z" transform="translate(-2.844 -18.046)" fill="#002647" fill-rule="evenodd"/>
  <path id="Path_22" data-name="Path 22" d="M17.446,47.622H16.157V43.376a1.319,1.319,0,0,0-.027-.33h1.289l.038.471a1.083,1.083,0,0,1,.417-.433,1.213,1.213,0,0,1,.606-.146,1.278,1.278,0,0,1,.921.309,1.191,1.191,0,0,1,.314.893v3.482H18.421V44.5a1.332,1.332,0,0,0-.1-.612.357.357,0,0,0-.33-.168.493.493,0,0,0-.4.179.709.709,0,0,0-.146.471" transform="translate(-7.396 -19.686)" fill="#002647" fill-rule="evenodd"/>
  <path id="Path_23" data-name="Path 23" d="M26.28,46.574c-.195.027-.368.043-.541.054h-.4a1.175,1.175,0,0,1-.877-.287,1.294,1.294,0,0,1-.282-.915V42.8H23.6v-.774h.6v-.774l1.262-.542v1.332h.818v.774h-.839V45.3a.769.769,0,0,0,.092.455.541.541,0,0,0,.379.1h.347" transform="translate(-10.821 -18.666)" fill="#002647" fill-rule="evenodd"/>
  <path id="Path_24" data-name="Path 24" d="M31.743,45.363a1.754,1.754,0,0,0-.953.184.747.747,0,0,0-.26.65.9.9,0,0,0,.13.541.422.422,0,0,0,.363.19.6.6,0,0,0,.541-.3,1.625,1.625,0,0,0,.184-.85m-2.312-1.511v-.092a1.029,1.029,0,0,1,.46-.9,2.415,2.415,0,0,1,1.343-.309,2.047,2.047,0,0,1,1.278.319,1.208,1.208,0,0,1,.412.991v2.854a4.516,4.516,0,0,0,.07.5H31.846l-.1-.542a1.229,1.229,0,0,1-.542.4,1.722,1.722,0,0,1-.72.157,1.126,1.126,0,0,1-.845-.336,1.554,1.554,0,0,1-.336-1.083,1.359,1.359,0,0,1,.482-1.143,2.794,2.794,0,0,1,1.549-.433h.406v-.206a1.294,1.294,0,0,0-.119-.661.412.412,0,0,0-.39-.195.6.6,0,0,0-.46.162.682.682,0,0,0-.152.487Z" transform="translate(-13.435 -19.696)" fill="#002647" fill-rule="evenodd"/>
  <path id="Path_25" data-name="Path 25" d="M37.76,47.605V43.019h1.121l.092.6a1.007,1.007,0,0,1,.412-.542,1.327,1.327,0,0,1,.709-.179h.076v1.137h-.114a1,1,0,0,0-.769.254,1.267,1.267,0,0,0-.238.861V47.61" transform="translate(-17.313 -19.669)" fill="#002647" fill-rule="evenodd"/>
  <path id="Path_26" data-name="Path 26" d="M44.583,39.46v1.083H43.3V39.46m1.283,1.993v4.576H43.3V41.453Z" transform="translate(-19.853 -18.092)" fill="#002647" fill-rule="evenodd"/>
  <path id="Path_27" data-name="Path 27" d="M48.417,45.284a4.278,4.278,0,0,0,.13,1.305.493.493,0,0,0,.937,0,4.278,4.278,0,0,0,.13-1.305,3.791,3.791,0,0,0-.13-1.235.477.477,0,0,0-.477-.3.466.466,0,0,0-.466.3,3.991,3.991,0,0,0-.125,1.245m.628-2.35a1.722,1.722,0,0,1,1.424.542,2.789,2.789,0,0,1,.433,1.765,3.352,3.352,0,0,1-.412,1.966,2.289,2.289,0,0,1-2.957,0,3.336,3.336,0,0,1-.417-1.96,2.751,2.751,0,0,1,.471-1.8,1.825,1.825,0,0,1,1.457-.525Z" transform="translate(-21.596 -19.681)" fill="#002647" fill-rule="evenodd"/>
  <path id="Path_28" data-name="Path 28" d="M61.424,40.474v1.841h.455a1.148,1.148,0,0,0,.8-.2,1.083,1.083,0,0,0,.195-.764,1.018,1.018,0,0,0-.184-.7A.942.942,0,0,0,62,40.452m.217-1.034a2.307,2.307,0,0,1,1.625.433,2.166,2.166,0,0,1,.444,1.538,3.249,3.249,0,0,1-.119.9,1.522,1.522,0,0,1-.374.65,1.256,1.256,0,0,1-.541.33,3.423,3.423,0,0,1-.975.1h-.866V46H60V39.439Z" transform="translate(-27.51 -18.066)" fill="#002647" fill-rule="evenodd"/>
  <path id="Path_29" data-name="Path 29" d="M68.88,47.605V43.019h1.148l.087.6a1.034,1.034,0,0,1,.412-.542,1.337,1.337,0,0,1,.709-.179h.081v1.137H71.2a1.018,1.018,0,0,0-.774.255,1.272,1.272,0,0,0-.233.861v2.458" transform="translate(-31.582 -19.669)" fill="#002647" fill-rule="evenodd"/>
  <path id="Path_30" data-name="Path 30" d="M75.551,45.284a4.229,4.229,0,0,0,.135,1.305.493.493,0,0,0,.937,0,4.278,4.278,0,0,0,.13-1.305,3.791,3.791,0,0,0-.13-1.245.482.482,0,0,0-.477-.3.46.46,0,0,0-.466.3,3.79,3.79,0,0,0-.13,1.245m.628-2.35a1.744,1.744,0,0,1,1.43.542,2.821,2.821,0,0,1,.433,1.765,3.341,3.341,0,0,1-.417,1.966,2.328,2.328,0,0,1-2.951,0,3.336,3.336,0,0,1-.417-1.96,2.789,2.789,0,0,1,.444-1.771,1.841,1.841,0,0,1,1.478-.542Z" transform="translate(-34.04 -19.682)" fill="#002647" fill-rule="evenodd"/>
  <path id="Path_31" data-name="Path 31" d="M83.324,47.7,82.16,43.126h1.31l.325,1.841c.049.265.092.569.13.9s.081.709.114,1.083a15.638,15.638,0,0,1,.39-1.879l.027-.1.487-1.868h1.245l-1.473,4.576" transform="translate(-37.67 -19.766)" fill="#002647" fill-rule="evenodd"/>
  <path id="Path_32" data-name="Path 32" d="M91.659,39.46v1.083H90.37V39.46m1.289,1.993v4.576H90.37V41.453Z" transform="translate(-41.435 -18.092)" fill="#002647" fill-rule="evenodd"/>
  <path id="Path_33" data-name="Path 33" d="M95.671,47.621H94.382V43.376a3.248,3.248,0,0,0-.032-.33h1.294l.032.471a1.083,1.083,0,0,1,.417-.433,1.213,1.213,0,0,1,.606-.146,1.267,1.267,0,0,1,.921.309,1.191,1.191,0,0,1,.319.893v3.482H96.646V44.5a1.332,1.332,0,0,0-.1-.612.352.352,0,0,0-.33-.168.487.487,0,0,0-.4.179.682.682,0,0,0-.152.471" transform="translate(-43.26 -19.685)" fill="#002647" fill-rule="evenodd"/>
  <path id="Path_34" data-name="Path 34" d="M104.957,45.9h1.278a1.771,1.771,0,0,1-.466,1.348,1.944,1.944,0,0,1-1.4.449,1.787,1.787,0,0,1-1.478-.541,3.336,3.336,0,0,1-.417-1.96,2.778,2.778,0,0,1,.444-1.765,1.776,1.776,0,0,1,1.451-.541,1.966,1.966,0,0,1,1.381.439,1.625,1.625,0,0,1,.482,1.24v.043h-1.278v-.043a1.2,1.2,0,0,0-.146-.661.493.493,0,0,0-.444-.217.466.466,0,0,0-.466.3,3.829,3.829,0,0,0-.125,1.245,4.278,4.278,0,0,0,.13,1.305.471.471,0,0,0,.466.336.482.482,0,0,0,.433-.238,1.24,1.24,0,0,0,.152-.677" transform="translate(-46.979 -19.663)" fill="#002647" fill-rule="evenodd"/>
  <path id="Path_35" data-name="Path 35" d="M112.109,39.46v1.083H110.82V39.46m1.289,1.993v4.576H110.82V41.453Z" transform="translate(-50.811 -18.092)" fill="#002647" fill-rule="evenodd"/>
  <path id="Path_36" data-name="Path 36" d="M117.011,45.363a1.744,1.744,0,0,0-.953.184.747.747,0,0,0-.265.65.9.9,0,0,0,.135.541.417.417,0,0,0,.363.19.585.585,0,0,0,.542-.3,1.624,1.624,0,0,0,.19-.85m-2.312-1.511v-.092a1.029,1.029,0,0,1,.46-.9,2.393,2.393,0,0,1,1.337-.309,2.063,2.063,0,0,1,1.283.319,1.208,1.208,0,0,1,.406,1.007v2.837a2.9,2.9,0,0,0,.065.5h-1.137l-.1-.542a1.267,1.267,0,0,1-.541.4,1.722,1.722,0,0,1-.72.157,1.137,1.137,0,0,1-.9-.384,1.581,1.581,0,0,1-.33-1.045,1.359,1.359,0,0,1,.482-1.143,2.778,2.778,0,0,1,1.549-.433h.406v-.206a1.294,1.294,0,0,0-.119-.661.428.428,0,0,0-.4-.195.6.6,0,0,0-.455.162.682.682,0,0,0-.152.487Z" transform="translate(-52.514 -19.696)" fill="#002647" fill-rule="evenodd"/>
  <path id="Path_37" data-name="Path 37" d="M123,46.033V39.47h1.273v6.563" transform="translate(-56.396 -18.097)" fill="#002647" fill-rule="evenodd"/>
  <path id="Path_38" data-name="Path 38" d="M132.8,40.492v1.841h.455a1.148,1.148,0,0,0,.8-.2,1.083,1.083,0,0,0,.195-.742,1.018,1.018,0,0,0-.184-.7.942.942,0,0,0-.688-.195m.217-1.034a2.318,2.318,0,0,1,1.625.433,2.166,2.166,0,0,1,.439,1.538,3.249,3.249,0,0,1-.114.9,1.522,1.522,0,0,1-.347.628,1.256,1.256,0,0,1-.541.33,3.422,3.422,0,0,1-.975.1h-.866v2.632h-1.43V39.458Z" transform="translate(-60.238 -18.085)" fill="#002647" fill-rule="evenodd"/>
  <path id="Path_39" data-name="Path 39" d="M141.26,45.284a4.278,4.278,0,0,0,.13,1.305.5.5,0,0,0,.942,0,4.278,4.278,0,0,0,.13-1.305,3.79,3.79,0,0,0-.13-1.245.487.487,0,0,0-.482-.3.471.471,0,0,0-.466.3,3.99,3.99,0,0,0-.125,1.245m.628-2.35a1.722,1.722,0,0,1,1.424.542,2.789,2.789,0,0,1,.433,1.765,3.352,3.352,0,0,1-.412,1.966,2.328,2.328,0,0,1-2.951,0,3.292,3.292,0,0,1-.417-1.96,2.756,2.756,0,0,1,.444-1.771A1.841,1.841,0,0,1,141.888,42.933Z" transform="translate(-64.167 -19.681)" fill="#002647" fill-rule="evenodd"/>
  <path id="Path_40" data-name="Path 40" d="M148.45,46.033V39.47h1.267v6.563" transform="translate(-68.064 -18.097)" fill="#002647" fill-rule="evenodd"/>
  <path id="Path_41" data-name="Path 41" d="M153.7,39.46v1.083H152.42V39.46m1.283,1.993v4.576H152.42V41.453Z" transform="translate(-69.885 -18.092)" fill="#002647" fill-rule="evenodd"/>
  <path id="Path_42" data-name="Path 42" d="M158.717,45.9H160a1.792,1.792,0,0,1-.46,1.348,1.96,1.96,0,0,1-1.4.449,1.8,1.8,0,0,1-1.484-.542,3.336,3.336,0,0,1-.417-1.96,2.778,2.778,0,0,1,.444-1.765,1.782,1.782,0,0,1,1.457-.541,1.96,1.96,0,0,1,1.375.439,1.576,1.576,0,0,1,.482,1.24v.043h-1.278v-.043a1.2,1.2,0,0,0-.146-.661.493.493,0,0,0-.444-.217.466.466,0,0,0-.466.3,3.991,3.991,0,0,0-.125,1.245,4.278,4.278,0,0,0,.13,1.305.477.477,0,0,0,.471.336.482.482,0,0,0,.428-.238,1.24,1.24,0,0,0,.152-.677" transform="translate(-71.628 -19.663)" fill="#002647" fill-rule="evenodd"/>
  <path id="Path_43" data-name="Path 43" d="M166.887,45.9h1.278a1.771,1.771,0,0,1-.466,1.348,1.939,1.939,0,0,1-1.392.449,1.8,1.8,0,0,1-1.484-.542,3.336,3.336,0,0,1-.417-1.96,2.778,2.778,0,0,1,.444-1.765,1.782,1.782,0,0,1,1.457-.541,1.928,1.928,0,0,1,1.4.455,1.885,1.885,0,0,1,.455,1.386v.693h-2.442V45.9a1.549,1.549,0,0,0,.135.753.471.471,0,0,0,.439.233.482.482,0,0,0,.439-.233,1.251,1.251,0,0,0,.152-.682m-1.164-1.262h1.164v-.384a.747.747,0,0,0-.152-.5.509.509,0,0,0-.412-.179.487.487,0,0,0-.439.227,1.278,1.278,0,0,0-.146.682Z" transform="translate(-75.374 -19.663)" fill="#002647" fill-rule="evenodd"/>
  <path id="Path_44" data-name="Path 44" d="M9.46,126.443l2.534-6.563h2.215l2.583,6.563H14.761l-.455-1.283H11.729l-.455,1.283m2.588-2.54-.828-2.74-.915,2.74Z" transform="translate(-4.337 -54.965)" fill="#002647" fill-rule="evenodd"/>
  <path id="Path_45" data-name="Path 45" d="M28.916,124.264v.043a.926.926,0,0,0,.26.7.958.958,0,0,0,.7.26,1.446,1.446,0,0,0,.8-.184.6.6,0,0,0,.271-.542c0-.336-.384-.6-1.148-.785l-.412-.1a4.229,4.229,0,0,1-1.754-.785,1.624,1.624,0,0,1-.455-1.224,1.679,1.679,0,0,1,.753-1.408,3.347,3.347,0,0,1,2-.541,3.406,3.406,0,0,1,1.987.482,1.662,1.662,0,0,1,.671,1.44v.114H30.768V121.7a.742.742,0,0,0-.828-.828,1,1,0,0,0-.634.184.6.6,0,0,0-.244.493c0,.33.482.606,1.44.839l.6.141a2.756,2.756,0,0,1,1.327.693,1.624,1.624,0,0,1,.422,1.18,1.765,1.765,0,0,1-.774,1.543,3.915,3.915,0,0,1-2.242.541,3.157,3.157,0,0,1-2.036-.569,2.02,2.02,0,0,1-.7-1.657" transform="translate(-12.422 -54.876)" fill="#002647" fill-rule="evenodd"/>
  <path id="Path_46" data-name="Path 46" d="M44.242,124.264v.043a.926.926,0,0,0,.26.7.948.948,0,0,0,.7.26,1.462,1.462,0,0,0,.8-.184.6.6,0,0,0,.271-.542c0-.336-.384-.6-1.153-.785l-.406-.1a4.229,4.229,0,0,1-1.754-.785,1.624,1.624,0,0,1-.455-1.224,1.662,1.662,0,0,1,.753-1.408,3.314,3.314,0,0,1,1.993-.542,3.433,3.433,0,0,1,1.993.482,1.662,1.662,0,0,1,.671,1.44v.114H46.093V121.7a.742.742,0,0,0-.828-.828,1.018,1.018,0,0,0-.639.184.606.606,0,0,0-.238.493c0,.33.477.606,1.44.839l.6.141a2.756,2.756,0,0,1,1.327.693,1.624,1.624,0,0,1,.422,1.18,1.765,1.765,0,0,1-.774,1.543,3.948,3.948,0,0,1-2.247.542,3.178,3.178,0,0,1-2.036-.569,2.02,2.02,0,0,1-.7-1.657" transform="translate(-19.446 -54.876)" fill="#002647" fill-rule="evenodd"/>
  <path id="Path_47" data-name="Path 47" d="M59.754,123.134a2.583,2.583,0,0,0,.374,1.527,1.446,1.446,0,0,0,2.2,0,3.363,3.363,0,0,0,0-3.059,1.435,1.435,0,0,0-2.2,0,2.61,2.61,0,0,0-.374,1.532m-1.879,0a3.4,3.4,0,0,1,.883-2.491,3.884,3.884,0,0,1,4.944,0,3.964,3.964,0,0,1,0,4.987,3.841,3.841,0,0,1-4.938,0,3.4,3.4,0,0,1-.888-2.5Z" transform="translate(-26.533 -54.905)" fill="#002647" fill-rule="evenodd"/>
  <path id="Path_48" data-name="Path 48" d="M81.3,124.281v.06a1.841,1.841,0,0,1-.8,1.581,3.742,3.742,0,0,1-2.22.574,3.2,3.2,0,0,1-2.377-.85,3.292,3.292,0,0,1-.839-2.41,3.628,3.628,0,0,1,.856-2.61,3.249,3.249,0,0,1,2.48-.893,3.439,3.439,0,0,1,2.085.541,2,2,0,0,1,.78,1.624H79.41a.856.856,0,0,0-.319-.644,1.229,1.229,0,0,0-.785-.233,1.115,1.115,0,0,0-1,.541,3.1,3.1,0,0,0-.347,1.624A2.675,2.675,0,0,0,77.3,124.7a1.153,1.153,0,0,0,1.023.5,1.18,1.18,0,0,0,.78-.244.937.937,0,0,0,.325-.682" transform="translate(-34.416 -54.894)" fill="#002647" fill-rule="evenodd"/>
  <path id="Path_49" data-name="Path 49" d="M91.7,126.483V119.92h1.814v6.563" transform="translate(-42.045 -54.983)" fill="#002647" fill-rule="evenodd"/>
  <path id="Path_50" data-name="Path 50" d="M99.65,126.443l2.54-6.563H104.4l2.594,6.563h-2.036l-.455-1.283h-2.583l-.455,1.283m2.588-2.54-.828-2.74-.915,2.74Z" transform="translate(-45.69 -54.965)" fill="#002647" fill-rule="evenodd"/>
  <path id="Path_51" data-name="Path 51" d="M117.633,126.483v-5.258H115.64V119.92h5.8v1.305h-1.982v5.258" transform="translate(-53.021 -54.983)" fill="#002647" fill-rule="evenodd"/>
  <path id="Path_52" data-name="Path 52" d="M130.96,126.483V119.92h1.814v6.563" transform="translate(-60.045 -54.983)" fill="#002647" fill-rule="evenodd"/>
  <path id="Path_53" data-name="Path 53" d="M141.338,123.139a2.583,2.583,0,0,0,.374,1.527,1.278,1.278,0,0,0,1.083.509,1.262,1.262,0,0,0,1.083-.509,3.363,3.363,0,0,0,0-3.059,1.267,1.267,0,0,0-1.083-.542,1.283,1.283,0,0,0-1.083.542,2.61,2.61,0,0,0-.374,1.532m-1.874,0a3.379,3.379,0,0,1,.883-2.491,3.877,3.877,0,0,1,4.938,0,3.964,3.964,0,0,1,0,4.987,3.839,3.839,0,0,1-4.938,0,3.4,3.4,0,0,1-.883-2.5Z" transform="translate(-63.942 -54.91)" fill="#002647" fill-rule="evenodd"/>
  <path id="Path_54" data-name="Path 54" d="M157.01,126.483V119.92H159.6l2.079,4.668V119.92h1.554v6.563h-2.5l-2.133-4.819v4.819" transform="translate(-71.989 -54.983)" fill="#002647" fill-rule="evenodd"/>
  <path id="Path_55" data-name="Path 55" d="M88,9.574l-9.26.005.823-1.088-3.13-2.3.7-.309L76.69,3.8l1.782.347.135-1,3,2.263-.26-4.262.866.606L83.329,0l1.186,1.744.872-.606L85.126,5.4l3-2.263.13,1,1.787-.347L89.6,5.881l.7.3L87.168,8.491" transform="translate(-35.043)" fill="#cf2114" fill-rule="evenodd"/>
  <path id="Path_56" data-name="Path 56" d="M135.17,56.982l.726,2.707V85.584c0,.579-.487.986-.726,1.473h9.79c-.336-.856-1-1.327-1-2.578V75.593h8.859c2.328,0,3.141-1.462,3.141-3.276V60.133c0-2.253-1.706-3.173-3.79-3.173" transform="translate(-61.976 -26.116)" fill="#002647" fill-rule="evenodd"/>
  <path id="Path_57" data-name="Path 57" d="M151.41,62.93V75.8h2.783c.9,0,1.386-.731,1.386-1.706V64.349a1.478,1.478,0,0,0-1.327-1.408" transform="translate(-69.422 -28.853)" fill="#fff" fill-rule="evenodd"/>
  <path id="Path_58" data-name="Path 58" d="M70,57.35l.726,2.707V85.952c0,.585-.487.986-.726,1.478h9.779c-.336-.861-1-1.332-1-2.578v-8.87h8.859c2.328,0,3.141-1.457,3.141-3.276V60.529c0-2.258-1.706-3.179-3.79-3.179" transform="translate(-32.095 -26.295)" fill="#002647" fill-rule="evenodd"/>
  <path id="Path_59" data-name="Path 59" d="M86.22,63.33V76.2H89c.9,0,1.386-.731,1.386-1.711V64.743a1.473,1.473,0,0,0-1.327-1.4" transform="translate(-39.532 -29.037)" fill="#fff" fill-rule="evenodd"/>
  <path id="Path_60" data-name="Path 60" d="M11.8,56.982h6.39c7.039,0,7.039,3.249,7.039,3.855V82.649c0,1.435,0,4.364-7.126,4.364H11.8c-7.229,0-7.229-2.93-7.229-4.364V60.815c0-.623,0-3.855,7.229-3.855" transform="translate(-2.095 -26.116)" fill="#002647" fill-rule="evenodd"/>
  <path id="Path_61" data-name="Path 61" d="M21.137,62.135H22.22c.823,0,1.765.542,1.765,1.408V85.019c0,.785-.347,1.505-1.354,1.505H20.9a1.538,1.538,0,0,1-1.294-1.505V63.684a1.624,1.624,0,0,1,1.511-1.554" transform="translate(-8.991 -28.487)" fill="#fff" fill-rule="evenodd"/>
  <path id="Path_62" data-name="Path 62" d="M118.35,90.539l-2.442-4.029a.466.466,0,0,0,.233-.406.46.46,0,0,0-.46-.46.439.439,0,0,0-.249.076l-2.491-4.11h5.052a.466.466,0,0,0,.926,0h4.836l-2.383,3.937a.433.433,0,0,0-.206-.054.471.471,0,0,0-.466.466.455.455,0,0,0,.195.374" transform="translate(-51.783 -37.418)" fill="#002647" fill-rule="evenodd"/>
  <path id="Path_63" data-name="Path 63" d="M117.433,89.65l-.07.265,2.442,4.029.319-.195-2.437-4.029-.255-.07-.173.1.1.168" transform="translate(-53.764 -41.105)" fill="#998742"/>
  <path id="Path_64" data-name="Path 64" d="M117.715,89.21h0v.038l-.005.011v.016l-.005.011v.005l-.005.011v.005l-.005.011-.005.005v.011l-.005.011-.005.005-.005.005-.005.011-.005.005-.005.005-.005.011-.005.005-.005.005-.005.005-.005.005-.005.005-.011.011h-.005l-.005.005-.011.005-.005.005-.005.005.184.33.016-.011.022-.011.016-.011.016-.016.016-.011.016-.011.016-.016.016-.016.016-.011.011-.016.016-.016.016-.022.011-.016.011-.016.011-.016.011-.016.011-.022.011-.016.011-.022.005-.016.011-.022.005-.022.011-.022.005-.022.005-.016.005-.027v-.016l.005-.022.005-.027V89.21" transform="translate(-53.911 -40.903)" fill="#998742"/>
  <path id="Path_65" data-name="Path 65" d="M117.33,88.389h.038l.016.005h.011l.011.005.016.005.011.005.011.005.011.005.016.005.011.005.011.011.011.005.011.011.005.011.011.005.011.011.005.011.005.011.011.011.005.011.005.011.005.016.005.011.005.011v.016l.005.011v.011l.005.016v.027h.379v-.033l-.005-.032v-.032l-.005-.032-.011-.032-.005-.032-.011-.027-.011-.032-.016-.027-.016-.027-.011-.027-.016-.027-.022-.027-.022-.022-.016-.027-.022-.022-.022-.022-.027-.022-.022-.016-.027-.022-.027-.016-.027-.016-.027-.011-.032-.016-.027-.011-.027-.011-.032-.011-.032-.005-.032-.005-.032-.005h-.065" transform="translate(-53.796 -40.353)" fill="#998742"/>
  <path id="Path_66" data-name="Path 66" d="M116.56,88.367l.265.065.005-.005h.005l.005-.005h.005l.005-.005h.005v-.005h.011l.005-.005h.011l.005-.005h.011l.005-.005h.016l.005-.005h.049V88.01H116.9l-.011.005h-.022l-.011.005h-.027l-.011.005-.011.005H116.8l-.011.005h-.011l-.011.005-.011.005h-.011l-.011.005-.011.005-.011.005-.011.005-.011.005-.011.005-.011.005-.005.005-.016.005-.011.005-.005.005-.011.005.265.06-.325.195.1.168.162-.1" transform="translate(-53.443 -40.353)" fill="#998742"/>
  <path id="Path_67" data-name="Path 67" d="M111.986,80.56l-.162.287,2.485,4.1.325-.195-2.485-4.1-.162-.092h-.336l.173.287" transform="translate(-51.192 -36.937)" fill="#998742"/>
  <path id="Path_68" data-name="Path 68" d="M117.512,80.75l-.19-.19H112.27v.379h5.052l.19-.19v-.19h-.19" transform="translate(-51.476 -36.937)" fill="#998742"/>
  <path id="Path_69" data-name="Path 69" d="M121.905,81.175h-.032l-.011-.005h-.011l-.016-.005h-.011l-.016-.005-.011-.005-.011-.005-.011-.005-.011-.005-.011-.011-.011-.005-.011-.005-.011-.011-.011-.011-.005-.005-.011-.011-.005-.011-.011-.011-.005-.011-.005-.011-.011-.011v-.011L121.645,81v-.011l-.005-.011v-.011l-.005-.016v-.011l-.005-.016V80.91l-.379.005v.032l.005.032.005.032.005.032.005.027.011.032.011.032.011.027.016.027.016.027.011.027.022.027.016.027.016.022.022.022.022.027.022.016.027.022.022.022.027.016.027.016.027.016.027.011.027.016.032.011.027.011.033.005.032.011.032.005h.032l.033.005h.032" transform="translate(-55.593 -37.097)" fill="#998742"/>
  <path id="Path_70" data-name="Path 70" d="M122.92,80.56l-.19.19v.027l-.005.011V80.8l-.005.011v.011l-.005.011-.005.016-.005.011-.005.011-.011.011-.005.011-.005.011-.011.011-.005.011-.011.005-.011.011-.011.011-.011.005-.011.005-.005.011-.016.005-.011.005-.011.005-.011.005-.016.005h-.011l-.011.005H122.5l-.011.005h-.027v.379h.032l.032-.005h.032l.032-.005.027-.011.032-.005.027-.011.032-.011.027-.016.032-.011.022-.016.027-.016.027-.016.027-.022.022-.022.022-.016.022-.027.022-.022.016-.022.022-.027.016-.027.016-.027.011-.027.016-.027.011-.027.011-.033.011-.032.005-.027.005-.033.005-.032.005-.032v-.032l-.19.184V80.56h-.184l-.005.19" transform="translate(-56.148 -36.937)" fill="#998742"/>
  <path id="Path_71" data-name="Path 71" d="M128.308,80.847l-.162-.287H123.31v.379h4.836l.162-.092.173-.287h-.336" transform="translate(-56.538 -36.937)" fill="#998742"/>
  <path id="Path_72" data-name="Path 72" d="M127.616,84.932l.249-.07,2.383-3.937-.325-.195-2.383,3.931.076.271.157.076.092-.146" transform="translate(-58.477 -37.015)" fill="#998742"/>
  <path id="Path_73" data-name="Path 73" d="M127.45,88.109h.016l.005.005h.038l.005.005h.016l.005.005h.011v.005h.011v.005h.011l.005.005.173-.341-.011-.005h-.005l-.011-.005-.005-.005-.011-.005H127.7l-.011-.005h-.011l-.005-.005-.011-.005h-.011l-.005-.005h-.011l-.011-.005h-.016l-.011-.005h-.005l-.011-.005h-.032l-.005-.005h-.022l-.011-.005h-.06" transform="translate(-58.436 -40.224)" fill="#998742"/>
  <path id="Path_74" data-name="Path 74" d="M126.629,88.385h0v-.032l.005-.011v-.016l.005-.011V88.3l.005-.016.005-.011.005-.011.005-.011.005-.016.011-.005.005-.011.005-.016.011-.005.011-.011.011-.011.005-.005.011-.011.011-.005.011-.011.016-.005.011-.005.011-.005.011-.005.016-.005h.011l.011-.005h.016l.011-.005h.027V87.73h-.032l-.033.005-.032.005h-.032l-.032.011-.033.011-.027.011-.027.011-.032.011-.027.016-.027.016-.027.016-.027.016-.022.022-.027.022-.022.016-.022.027-.016.022L126.38,88l-.022.022-.016.027-.011.027-.016.027-.016.032-.011.027-.011.032-.005.032-.011.027-.005.032v.032l-.005.032v.038" transform="translate(-57.886 -40.224)" fill="#998742"/>
  <path id="Path_75" data-name="Path 75" d="M126.8,89.411l-.054-.249-.005-.005-.005-.005-.005-.005-.005-.005-.005-.005-.011-.005-.005-.005v-.005l-.011-.005V89.1l-.005-.005-.005-.005-.005-.005-.005-.005v-.005l-.005-.011-.005-.005-.005-.011v-.005l-.005-.005v-.011l-.005-.005V89l-.005-.011v-.016l-.005-.005V88.94h-.379V89l.005.022v.016l.005.022.005.016V89.1l.005.016.011.022v.016l.011.022.005.016.011.016.005.016.011.022.005.016.011.016.011.016.011.016.011.011.011.016.011.016.011.016.016.011.011.016.016.011.011.016.016.011.016.016.011.005.016.016-.049-.255.325.195.087-.146-.141-.1" transform="translate(-57.886 -40.779)" fill="#998742"/>
  <path id="Path_76" data-name="Path 76" d="M121.96,93.852h.319l2.55-4.207-.325-.195-2.545,4.207v.195l.157.26.162-.26" transform="translate(-55.919 -41.013)" fill="#998742"/>
  <path id="Path_77" data-name="Path 77" d="M117.674,89.858l-2.437-4.007a.466.466,0,0,0,.233-.406.46.46,0,0,0-.46-.46.5.5,0,0,0-.255.07l-2.485-4.1h5.052a.466.466,0,0,0,.926,0h4.836L120.7,84.881a.541.541,0,0,0-.211-.049.466.466,0,0,0-.46.466.455.455,0,0,0,.195.374" transform="translate(-51.476 -37.116)" fill="#fff" fill-rule="evenodd"/>
</svg>
